<svg xmlns="http://www.w3.org/2000/svg" viewBox="0 0 100 100">
  <defs>
    <linearGradient id="bgGrad" x1="0%" y1="0%" x2="100%" y2="100%">
      <stop offset="0%" style="stop-color:#6b7ff5;stop-opacity:1" />
      <stop offset="100%" style="stop-color:#5865f2;stop-opacity:1" />
    </linearGradient>
  </defs>
  
  <!-- Синий фон -->
  <rect width="100" height="100" fill="url(#bgGrad)" rx="20"/>
  
  <!-- Жёлтый калькулятор с белой обводкой -->
  <rect x="30" y="25" width="40" height="50" rx="4" fill="#ffaa00" stroke="#ffffff" stroke-width="2.5"/>
  
  <!-- Дисплей -->
  <rect x="33" y="28" width="34" height="10" rx="2" fill="#1a1a1a"/>
  
  <!-- Кнопки (сетка 4x4) -->
  <!-- Ряд 1 -->
  <circle cx="37" cy="45" r="2.5" fill="#ffffff"/>
  <circle cx="45" cy="45" r="2.5" fill="#ffffff"/>
  <circle cx="53" cy="45" r="2.5" fill="#ffffff"/>
  <circle cx="61" cy="45" r="2.5" fill="#ffffff"/>
  
  <!-- Ряд 2 -->
  <circle cx="37" cy="53" r="2.5" fill="#ffffff"/>
  <circle cx="45" cy="53" r="2.5" fill="#ffffff"/>
  <circle cx="53" cy="53" r="2.5" fill="#ffffff"/>
  <circle cx="61" cy="53" r="2.5" fill="#ffffff"/>
  
  <!-- Ряд 3 -->
  <circle cx="37" cy="61" r="2.5" fill="#ffffff"/>
  <circle cx="45" cy="61" r="2.5" fill="#ffffff"/>
  <circle cx="53" cy="61" r="2.5" fill="#ffffff"/>
  <circle cx="61" cy="61" r="2.5" fill="#ffffff"/>
  
  <!-- Ряд 4 -->
  <circle cx="37" cy="69" r="2.5" fill="#ffffff"/>
  <circle cx="45" cy="69" r="2.5" fill="#ffffff"/>
  <circle cx="53" cy="69" r="2.5" fill="#ffffff"/>
  <circle cx="61" cy="69" r="2.5" fill="#ffffff"/>
</svg>
